<svg width="40" height="40" viewBox="0 0 40 40" fill="none" xmlns="http://www.w3.org/2000/svg">
<path fill-rule="evenodd" clip-rule="evenodd" d="M19.25 7.33333C19.6945 6.99999 20.3055 6.99999 20.75 7.33333L30.7383 14.8246L30.76 14.8409L34.0833 17.3333C34.6357 17.7475 34.7475 18.531 34.3333 19.0833C33.9192 19.6357 33.1357 19.7475 32.5833 19.3333L31.25 18.3333V31.6667C31.25 32.357 30.6903 32.9167 30 32.9167H23.3333H16.6667H10C9.30964 32.9167 8.75 32.357 8.75 31.6667V18.3333L7.41667 19.3333C6.86439 19.7475 6.08089 19.6357 5.66667 19.0833C5.25245 18.531 5.36439 17.7475 5.91667 17.3333L9.23989 14.8409L9.26165 14.8246L19.25 7.33333ZM17.9167 30.4167H22.0833V21.25H17.9167V30.4167ZM24.5833 30.4167V20C24.5833 19.3097 24.0237 18.75 23.3333 18.75H16.6667C15.9763 18.75 15.4167 19.3097 15.4167 20V30.4167H11.25V16.4583L20 9.89583L28.75 16.4583V30.4167H24.5833Z" fill="black"/>
</svg>
