<svg width="40" height="40" viewBox="0 0 40 40" fill="none" xmlns="http://www.w3.org/2000/svg">
<path fill-rule="evenodd" clip-rule="evenodd" d="M14.8367 9.00829C15.8586 8.59359 16.9492 8.35001 18.0667 8.35001C19.1975 8.35001 20.2975 8.58237 21.2763 8.99982C22.2628 9.42054 23.1663 10.0319 23.9247 10.7757C24.6708 11.5076 25.2737 12.3977 25.675 13.3867C26.0897 14.4086 26.3333 15.4991 26.3333 16.6166C26.3333 17.7475 26.101 18.8475 25.6835 19.8263C25.2628 20.8128 24.6513 21.7163 23.9075 22.4748C23.1757 23.221 22.2857 23.8237 21.2967 24.225C20.2747 24.6397 19.1842 24.8833 18.0667 24.8833C16.9358 24.8833 15.8359 24.651 14.857 24.2335C14.5865 24.1182 14.284 24.1018 14.0027 24.1875L12.9461 24.509C12.8739 24.524 12.8021 24.5458 12.7314 24.5743L8.96157 25.7217L10.4958 20.6807C10.5814 20.3993 10.5651 20.0968 10.4498 19.8263C10.0323 18.8475 9.79998 17.7475 9.79998 16.6166C9.79998 15.4857 10.0323 14.3859 10.4498 13.407C10.8704 12.4206 11.4819 11.517 12.2257 10.7586C12.9575 10.0124 13.8477 9.40962 14.8367 9.00829ZM12.5583 27.2403L7.44727 28.7958C7.00563 28.9303 6.52587 28.8103 6.19943 28.4838C5.873 28.1575 5.75307 27.6777 5.88747 27.236L7.97635 20.3725C7.53777 19.2002 7.29998 17.9225 7.29998 16.6166C7.29998 15.1475 7.60093 13.7141 8.15015 12.4263C8.69613 11.1461 9.48468 9.98297 10.4409 9.00806C11.4091 8.02089 12.5856 7.22376 13.8966 6.69176C15.1747 6.17312 16.5841 5.85001 18.0667 5.85001C19.5358 5.85001 20.9692 6.15101 22.257 6.70022C23.5372 7.24619 24.7003 8.03469 25.6753 8.99089C26.6623 9.95906 27.4595 11.1356 27.9917 12.4466C28.0952 12.7019 28.191 12.9625 28.278 13.2278C28.7303 13.5532 29.1515 13.9169 29.5338 14.2993L29.5425 14.3079C30.4988 15.2828 31.2872 16.446 31.8332 17.7262C32.3823 19.014 32.6833 20.4475 32.6833 21.9167C32.6833 23.2225 32.4455 24.5002 32.007 25.6723L34.0958 32.536C34.2302 32.9775 34.1103 33.4573 33.7838 33.7838C33.4573 34.1102 32.9777 34.2302 32.536 34.0957L25.6725 32.0068C24.5002 32.4453 23.2225 32.6832 21.9167 32.6832C20.4513 32.6832 19.0217 32.3838 17.7363 31.8373C16.4201 31.3013 15.2362 30.4705 14.2994 29.5338C13.6165 28.8508 13.034 28.081 12.5583 27.2403ZM15.4379 27.058C15.6338 27.3063 15.8437 27.5425 16.0672 27.766C16.7947 28.4935 17.707 29.1273 18.6867 29.525L18.707 29.5332C19.6858 29.9507 20.7858 30.1832 21.9167 30.1832C23.0475 30.1832 24.1473 29.9508 25.1263 29.5333C25.3968 29.418 25.6993 29.4017 25.9807 29.4873L31.0217 31.0217L29.4875 25.9805C29.4018 25.6992 29.4182 25.3967 29.5335 25.1262C29.951 24.1473 30.1833 23.0475 30.1833 21.9167C30.1833 20.7857 29.951 19.6857 29.5335 18.7068C29.3328 18.2363 29.0888 17.7848 28.8077 17.3587C28.7243 18.5667 28.4395 19.7372 27.9832 20.807C27.4372 22.0872 26.6487 23.2503 25.6923 24.2253C24.7242 25.2125 23.5477 26.0095 22.2367 26.5415C20.9587 27.0602 19.5492 27.3833 18.0667 27.3833C17.1687 27.3833 16.2841 27.2708 15.4379 27.058Z" fill="black"/>
</svg>
