<svg width="40" height="40" viewBox="0 0 40 40" fill="none" xmlns="http://www.w3.org/2000/svg">
<path fill-rule="evenodd" clip-rule="evenodd" d="M18.8166 9.19997C18.8166 8.47979 19.4151 7.91666 19.9833 7.91666C20.588 7.91666 21.15 8.45139 21.15 9.14997C21.15 10.4241 21.907 11.6536 23.115 12.1783C24.3763 12.7357 25.8031 12.3793 26.725 11.5087C26.7335 11.5006 26.7421 11.4923 26.7505 11.4839C27.2345 10.9998 28.0095 11.0106 28.4495 11.4505C28.8905 11.8917 28.9013 12.6557 28.425 13.1406L28.42 13.1457C27.5346 14.0571 27.1648 15.5579 27.7216 16.8183C28.247 18.0273 29.5203 18.807 30.774 18.833L30.8 18.8333C31.5201 18.8333 32.0833 19.4318 32.0833 20C32.0833 20.6047 31.5485 21.1667 30.85 21.1667C29.5758 21.1667 28.3463 21.9237 27.8216 23.1317C27.2643 24.393 27.6206 25.8198 28.4911 26.7417C28.4993 26.7503 28.5076 26.7588 28.5161 26.7672C29.0001 27.2513 28.9893 28.0262 28.5495 28.4662C28.1083 28.9073 27.3443 28.9182 26.8593 28.4417L26.8543 28.4367C25.9521 27.5603 24.5028 27.1767 23.2316 27.7383C21.9941 28.276 21.2666 29.5767 21.2666 30.8167C21.2666 31.5368 20.6681 32.1 20.1 32.1C19.4953 32.1 18.9333 31.5653 18.9333 30.8667L18.933 30.8412C18.907 29.5618 18.1156 28.3077 16.8335 27.8233C15.5808 27.2875 14.1717 27.6453 13.2584 28.5078C13.2497 28.516 13.2412 28.5243 13.2327 28.5328C12.7487 29.0168 11.9737 29.006 11.5338 28.5662C11.0927 28.125 11.0819 27.361 11.5583 26.876L11.5632 26.871C12.4396 25.9688 12.8233 24.5195 12.2616 23.2483C11.7239 22.0108 10.4232 21.2833 9.1833 21.2833C8.46308 21.2833 7.89996 20.6848 7.89996 20.1167C7.89996 19.512 8.43471 18.95 9.13331 18.95L9.15881 18.9497C10.4381 18.9237 11.6924 18.1323 12.1767 16.8502C12.7124 15.5975 12.3546 14.1884 11.4921 13.2751C11.4839 13.2664 11.4756 13.2579 11.4672 13.2495C10.9831 12.7654 10.9939 11.9905 11.4338 11.5505C11.875 11.1094 12.639 11.0986 13.1239 11.575L13.129 11.5799C14.0404 12.4653 15.5412 12.8351 16.8016 12.2782C18.0106 11.753 18.7903 10.4797 18.8163 9.22601L18.8166 9.19997ZM19.9833 5.41666C17.8911 5.41666 16.326 7.24252 16.3167 9.18251C16.3056 9.52411 16.0564 9.87691 15.8044 9.98574L15.7923 9.99104C15.5545 10.0968 15.1266 10.0335 14.8726 9.78836C13.4572 8.40132 11.1238 8.32504 9.66608 9.78276C8.21165 11.2372 8.2829 13.5831 9.68308 15.0008C9.93685 15.2765 9.97861 15.6411 9.87436 15.8756C9.86233 15.9027 9.85125 15.9302 9.84116 15.9581C9.7479 16.216 9.45306 16.4395 9.11638 16.45C7.12215 16.459 5.39996 18.0605 5.39996 20.1167C5.39996 22.2152 7.23686 23.7833 9.1833 23.7833C9.54131 23.7833 9.87171 24.0202 9.96905 24.2455L9.97436 24.2577C10.0752 24.4847 10.0258 24.8643 9.77171 25.1273C8.38461 26.5427 8.30836 28.8762 9.76608 30.3338C11.2205 31.7883 13.5664 31.717 14.9841 30.3168C15.2597 30.0632 15.6244 30.0213 15.859 30.1257C15.8861 30.1377 15.9136 30.1487 15.9415 30.1588C16.1993 30.2522 16.4228 30.5468 16.4333 30.8835C16.4423 32.8778 18.0438 34.6 20.1 34.6C22.1985 34.6 23.7666 32.7632 23.7666 30.8167C23.7666 30.4587 24.0035 30.1282 24.2288 30.0308L24.241 30.0255C24.4678 29.9247 24.8475 29.9742 25.1105 30.2282C26.5258 31.6153 28.8595 31.6917 30.3171 30.2338C31.7716 28.7793 31.7003 26.4337 30.3001 25.0158C30.0465 24.7402 30.0046 24.3755 30.1088 24.141L30.1141 24.1288C30.2243 23.8738 30.5261 23.6667 30.85 23.6667C32.8513 23.6667 34.5833 22.062 34.5833 20C34.5833 17.9078 32.7575 16.3427 30.8175 16.3333C30.4758 16.3222 30.123 16.0731 30.0141 15.8211L30.009 15.809C29.9031 15.5712 29.9663 15.1434 30.2115 14.8894C31.5986 13.474 31.675 11.1405 30.2171 9.68277C28.7628 8.22834 26.417 8.29956 24.9991 9.69972C24.7235 9.95352 24.3588 9.99529 24.1243 9.89106L24.1121 9.88574C23.8571 9.77559 23.65 9.47372 23.65 9.14997C23.65 7.14856 22.0453 5.41666 19.9833 5.41666ZM17.6166 20.0002C17.6166 18.6838 18.6836 17.6168 20 17.6168C21.3163 17.6168 22.3833 18.6838 22.3833 20.0002C22.3833 21.3163 21.3163 22.3835 20 22.3835C18.6836 22.3835 17.6166 21.3163 17.6166 20.0002ZM20 15.1168C17.303 15.1168 15.1167 17.3032 15.1167 20.0002C15.1167 22.6972 17.303 24.8835 20 24.8835C22.697 24.8835 24.8833 22.6972 24.8833 20.0002C24.8833 17.3032 22.697 15.1168 20 15.1168Z" fill="black"/>
</svg>
