<svg width="24" height="24" viewBox="0 0 24 24" fill="none" xmlns="http://www.w3.org/2000/svg">
<path fill-rule="evenodd" clip-rule="evenodd" d="M12 2C12.4142 2 12.75 2.33579 12.75 2.75V4.25C12.75 4.66421 12.4142 5 12 5C11.5858 5 11.25 4.66421 11.25 4.25V2.75C11.25 2.33579 11.5858 2 12 2ZM12 7.75C9.65279 7.75 7.75 9.65279 7.75 12C7.75 14.3472 9.65279 16.25 12 16.25C14.3472 16.25 16.25 14.3472 16.25 12C16.25 9.65279 14.3472 7.75 12 7.75ZM6.25 12C6.25 8.82436 8.82436 6.25 12 6.25C15.1756 6.25 17.75 8.82436 17.75 12C17.75 15.1756 15.1756 17.75 12 17.75C8.82436 17.75 6.25 15.1756 6.25 12ZM12.75 19.75C12.75 19.3358 12.4142 19 12 19C11.5858 19 11.25 19.3358 11.25 19.75V21.25C11.25 21.6642 11.5858 22 12 22C12.4142 22 12.75 21.6642 12.75 21.25V19.75ZM19 12C19 11.5858 19.3358 11.25 19.75 11.25H21.25C21.6642 11.25 22 11.5858 22 12C22 12.4142 21.6642 12.75 21.25 12.75H19.75C19.3358 12.75 19 12.4142 19 12ZM2.75 11.25C2.33579 11.25 2 11.5858 2 12C2 12.4142 2.33579 12.75 2.75 12.75H4.25C4.66421 12.75 5 12.4142 5 12C5 11.5858 4.66421 11.25 4.25 11.25H2.75ZM4.90967 4.90961C5.20256 4.61672 5.67744 4.61672 5.97033 4.90961L7.03033 5.96961C7.32323 6.2625 7.32323 6.73737 7.03033 7.03027C6.73744 7.32316 6.26257 7.32316 5.96967 7.03027L4.90967 5.97027C4.61678 5.67738 4.61678 5.20251 4.90967 4.90961ZM18.0303 16.9697C17.7374 16.6768 17.2626 16.6768 16.9697 16.9697C16.6768 17.2626 16.6768 17.7374 16.9697 18.0303L18.0297 19.0903C18.3226 19.3832 18.7974 19.3832 19.0903 19.0903C19.3832 18.7974 19.3832 18.3226 19.0903 18.0297L18.0303 16.9697ZM19.0903 4.90961C19.3832 5.20251 19.3832 5.67738 19.0903 5.97027L18.0303 7.03027C17.7374 7.32316 17.2626 7.32316 16.9697 7.03027C16.6768 6.73738 16.6768 6.2625 16.9697 5.96961L18.0297 4.90961C18.3226 4.61672 18.7974 4.61672 19.0903 4.90961ZM7.03033 18.0303C7.32323 17.7374 7.32323 17.2626 7.03033 16.9697C6.73744 16.6768 6.26257 16.6768 5.96967 16.9697L4.90967 18.0297C4.61678 18.3226 4.61678 18.7974 4.90967 19.0903C5.20256 19.3832 5.67744 19.3832 5.97033 19.0903L7.03033 18.0303Z" fill="black"/>
</svg>
