<svg width="24" height="24" viewBox="0 0 24 24" fill="none" xmlns="http://www.w3.org/2000/svg">
<path fill-rule="evenodd" clip-rule="evenodd" d="M11.75 8.5C11.75 7.25736 12.7574 6.25 14 6.25C15.2426 6.25 16.25 7.25736 16.25 8.5C16.25 9.74264 15.2426 10.75 14 10.75C12.7574 10.75 11.75 9.74264 11.75 8.5ZM14 4.75C11.9289 4.75 10.25 6.42893 10.25 8.5C10.25 10.5711 11.9289 12.25 14 12.25C16.0711 12.25 17.75 10.5711 17.75 8.5C17.75 6.42893 16.0711 4.75 14 4.75ZM7.75 18.5C7.75 17.7889 7.90972 17.2735 8.16054 16.8866C8.41216 16.4986 8.79104 16.1851 9.31846 15.9378C10.4067 15.4274 12.0105 15.25 14 15.25C15.9895 15.25 17.5933 15.4274 18.6815 15.9378C19.209 16.1851 19.5878 16.4986 19.8395 16.8866C20.0903 17.2735 20.25 17.7889 20.25 18.5C20.25 18.9142 20.5858 19.25 21 19.25C21.4142 19.25 21.75 18.9142 21.75 18.5C21.75 17.5561 21.5347 16.744 21.098 16.0706C20.6622 15.3983 20.041 14.9186 19.3185 14.5797C17.9067 13.9176 16.0105 13.75 14 13.75C11.9895 13.75 10.0933 13.9176 8.68154 14.5797C7.95896 14.9186 7.33784 15.3983 6.90196 16.0706C6.46528 16.744 6.25 17.5561 6.25 18.5C6.25 18.9142 6.58579 19.25 7 19.25C7.41421 19.25 7.75 18.9142 7.75 18.5ZM5.32294 9.78368C5.46991 8.12701 6.93936 6.91349 8.59223 7.07344C9.00452 7.11334 9.3064 7.47991 9.2665 7.8922C9.2266 8.30448 8.86004 8.60637 8.44775 8.56647C7.62062 8.48642 6.89011 9.0929 6.81708 9.91622C6.74281 10.7534 7.34857 11.4803 8.16628 11.5529L8.17319 11.5535L8.17319 11.5535C8.50653 11.5862 8.82985 11.5032 9.12112 11.3327C9.47859 11.1234 9.93801 11.2436 10.1473 11.6011C10.3565 11.9585 10.2364 12.418 9.87889 12.6272C9.35105 12.9362 8.71565 13.1131 8.03033 13.0467C6.36982 12.8975 5.17731 11.4254 5.32294 9.78368ZM6.5 13.25C4.95935 13.25 3.7969 13.5813 3.07299 14.472C2.38319 15.3207 2.25 16.5014 2.25 17.75C2.25 18.1642 2.58579 18.5 3 18.5C3.41421 18.5 3.75 18.1642 3.75 17.75C3.75 16.5186 3.90681 15.8243 4.23701 15.418C4.5331 15.0537 5.12065 14.75 6.5 14.75C6.91421 14.75 7.25 14.4142 7.25 14C7.25 13.5858 6.91421 13.25 6.5 13.25Z" fill="black"/>
</svg>
